<svg width="200" height="200" viewBox="0 0 200 200" fill="none" xmlns="http://www.w3.org/2000/svg">
  <defs>
    <linearGradient id="gradient" x1="0%" y1="0%" x2="100%" y2="100%">
      <stop offset="0%" style="stop-color:#9333ea;stop-opacity:1" />
      <stop offset="100%" style="stop-color:#db2777;stop-opacity:1" />
    </linearGradient>
  </defs>
  
  <!-- Outer Circle -->
  <circle cx="100" cy="100" r="95" fill="url(#gradient)" opacity="0.1"/>
  
  <!-- Globe -->
  <circle cx="100" cy="100" r="70" fill="url(#gradient)"/>
  
  <!-- Latitude lines -->
  <ellipse cx="100" cy="100" rx="70" ry="20" fill="none" stroke="white" stroke-width="2" opacity="0.3"/>
  <ellipse cx="100" cy="100" rx="70" ry="40" fill="none" stroke="white" stroke-width="2" opacity="0.3"/>
  
  <!-- Longitude lines -->
  <ellipse cx="100" cy="100" rx="20" ry="70" fill="none" stroke="white" stroke-width="2" opacity="0.3"/>
  <ellipse cx="100" cy="100" rx="40" ry="70" fill="none" stroke="white" stroke-width="2" opacity="0.3"/>
  <line x1="100" y1="30" x2="100" y2="170" stroke="white" stroke-width="2" opacity="0.3"/>
  
  <!-- Heart symbol in center -->
  <path d="M100 95 C100 95, 85 80, 85 90 C85 95, 85 98, 100 110 C115 98, 115 95, 115 90 C115 80, 100 95, 100 95 Z" 
        fill="white" opacity="0.9"/>
  
  <!-- Small stars around -->
  <circle cx="40" cy="50" r="3" fill="white" opacity="0.8"/>
  <circle cx="160" cy="60" r="2" fill="white" opacity="0.8"/>
  <circle cx="50" cy="150" r="2.5" fill="white" opacity="0.8"/>
  <circle cx="150" cy="140" r="2" fill="white" opacity="0.8"/>
</svg>

